<svg id="visual" viewBox="0 0 900 600" width="900" height="600" xmlns="http://www.w3.org/2000/svg" xmlns:xlink="http://www.w3.org/1999/xlink" version="1.1"><path d="M728 600L740.7 580C753.3 560 778.7 520 796 480C813.3 440 822.7 400 803 360C783.3 320 734.7 280 706.3 240C678 200 670 160 693 120C716 80 770 40 797 20L824 0L900 0L900 20C900 40 900 80 900 120C900 160 900 200 900 240C900 280 900 320 900 360C900 400 900 440 900 480C900 520 900 560 900 580L900 600Z" fill="#ffe4c4" stroke-linecap="round" stroke-linejoin="miter"></path></svg>